<?xml version="1.0" standalone="no"?>
<!DOCTYPE svg PUBLIC "-//W3C//DTD SVG 20010904//EN"
 "http://www.w3.org/TR/2001/REC-SVG-20010904/DTD/svg10.dtd">
<svg version="1.0" xmlns="http://www.w3.org/2000/svg"
 width="512.000000pt" height="512.000000pt" viewBox="0 0 512.000000 512.000000"
 preserveAspectRatio="xMidYMid meet">
<metadata>
Created by potrace 1.11, written by Peter Selinger 2001-2013
</metadata>
<g transform="translate(0.000000,512.000000) scale(0.100000,-0.100000)"
fill="#000000" stroke="none">
<path d="M0 3280 l0 -1840 1318 0 c1097 0 1333 3 1412 15 454 69 811 411 917
878 23 104 23 336 -1 447 -47 219 -136 387 -290 548 -131 136 -263 223 -430
281 -573 201 -1189 -101 -1399 -686 -40 -111 -59 -233 -59 -373 1 -305 110
-567 327 -787 l81 -83 -477 0 -477 0 -45 108 c-118 279 -160 487 -160 777 1
491 179 938 517 1292 278 292 616 474 1017 549 132 25 420 30 562 10 532 -75
985 -359 1286 -806 377 -561 424 -1274 126 -1885 -284 -580 -829 -965 -1467
-1034 -63 -7 -562 -11 -1428 -11 l-1330 0 0 -340 0 -340 2560 0 2560 0 0 340
0 340 -782 0 -783 1 38 22 c180 104 315 208 461 354 91 91 252 292 285 356
l14 27 384 0 383 0 0 1840 0 1840 -2560 0 -2560 0 0 -1840z"/>
</g>
</svg>
